<svg width="37" height="37" viewBox="0 0 37 37" fill="none" xmlns="http://www.w3.org/2000/svg">
<path d="M35.1867 4.6887L36.4945 3.3809L33.879 0.765316L32.5712 2.07311L35.1867 4.6887ZM1.92986 32.7144C1.20759 33.4367 1.20758 34.6077 1.92986 35.33C2.65214 36.0523 3.82318 36.0523 4.54545 35.33L1.92986 32.7144ZM25.5001 35.33L26.8079 36.6378L29.4235 34.0222L28.1157 32.7144L25.5001 35.33ZM2.95265 32.2479C1.97271 32.5361 1.41198 33.5642 1.70021 34.5441C1.98845 35.524 3.01651 36.0848 3.99645 35.7965L2.95265 32.2479ZM4.66399 9.26253L3.3562 7.95474L0.74061 10.5703L2.04841 11.8781L4.66399 9.26253ZM32.5712 2.07311L2.0484 32.5959L4.66399 35.2115L35.1867 4.6887L32.5712 2.07311ZM2.0484 32.5959L1.92986 32.7144L4.54545 35.33L4.66399 35.2115L2.0484 32.5959ZM28.1157 32.7144C26.3355 30.9342 23.689 30.2078 21.1125 29.9449C18.4779 29.6761 15.5702 29.8588 12.9173 30.199C10.2507 30.5409 7.7662 31.0519 5.95379 31.4754C5.04559 31.6876 4.30138 31.879 3.78169 32.018C3.52174 32.0875 3.31768 32.1441 3.17706 32.1837C3.10673 32.2035 3.05225 32.219 3.01454 32.2299C2.99568 32.2353 2.98102 32.2396 2.97067 32.2426C2.96549 32.2441 2.96139 32.2453 2.95838 32.2462C2.95688 32.2466 2.95565 32.247 2.95469 32.2473C2.95422 32.2474 2.95371 32.2475 2.95347 32.2476C2.95302 32.2478 2.95265 32.2479 3.47455 34.0222C3.99645 35.7965 3.99621 35.7966 3.99605 35.7967C3.99608 35.7966 3.99598 35.7967 3.99605 35.7967C3.99619 35.7966 3.99661 35.7965 3.99729 35.7963C3.99866 35.7959 4.0011 35.7952 4.00461 35.7942C4.01163 35.7921 4.02291 35.7888 4.03833 35.7844C4.06917 35.7755 4.11658 35.762 4.1796 35.7442C4.30568 35.7087 4.49416 35.6565 4.73758 35.5914C5.22463 35.4611 5.93045 35.2795 6.79543 35.0774C8.52937 34.6723 10.8839 34.189 13.3877 33.8679C15.9051 33.5452 18.4994 33.3965 20.737 33.6248C23.0326 33.8591 24.6286 34.4585 25.5001 35.33L28.1157 32.7144ZM3.3562 33.9037C5.05869 34.6263 5.0589 34.6258 5.05914 34.6252C5.05925 34.625 5.05951 34.6243 5.05974 34.6238C5.06019 34.6227 5.06075 34.6214 5.06141 34.6198C5.06274 34.6167 5.06448 34.6126 5.06663 34.6074C5.07092 34.5972 5.07685 34.583 5.08432 34.565C5.09926 34.529 5.1204 34.4776 5.14709 34.4116C5.20045 34.2797 5.27607 34.0894 5.3688 33.847C5.55414 33.3625 5.80839 32.6684 6.09008 31.8157C6.65181 30.1151 7.33066 27.7597 7.78523 25.1632C8.23777 22.5782 8.48207 19.677 8.12348 16.9115C7.76446 14.1426 6.78197 11.3805 4.66399 9.26253L2.04841 11.8781C3.40674 13.2365 4.16241 15.1291 4.45519 17.3871C4.74841 19.6484 4.55817 22.146 4.14164 24.5253C3.72712 26.8931 3.10236 29.0673 2.57775 30.6554C2.31626 31.447 2.08166 32.087 1.91393 32.5254C1.83012 32.7445 1.76316 32.9129 1.71808 33.0244C1.69554 33.0801 1.67849 33.1215 1.66754 33.1479C1.66207 33.1611 1.65813 33.1705 1.6558 33.1761C1.65463 33.1788 1.65386 33.1807 1.65351 33.1815C1.65334 33.1819 1.65327 33.1821 1.65329 33.182C1.65331 33.182 1.65341 33.1817 1.65342 33.1817C1.65355 33.1814 1.6537 33.181 3.3562 33.9037Z" fill="#556BA7" fill-opacity="0.25"/>
</svg>
