<svg width="17" height="17" viewBox="0 0 17 17" fill="none" xmlns="http://www.w3.org/2000/svg">
<mask id="path-1-inside-1_435_5923" fill="white">
<path d="M8.50001 11.5852C8.03335 11.5852 7.56668 11.4052 7.21335 11.0518L2.86668 6.70518C2.67335 6.51185 2.67335 6.19185 2.86668 5.99852C3.06001 5.80518 3.38001 5.80518 3.57335 5.99852L7.92001 10.3452C8.24001 10.6652 8.76001 10.6652 9.08001 10.3452L13.4267 5.99852C13.62 5.80518 13.94 5.80518 14.1333 5.99852C14.3267 6.19185 14.3267 6.51185 14.1333 6.70518L9.78668 11.0518C9.43335 11.4052 8.96668 11.5852 8.50001 11.5852Z"/>
</mask>
<path d="M8.50001 11.5852C8.03335 11.5852 7.56668 11.4052 7.21335 11.0518L2.86668 6.70518C2.67335 6.51185 2.67335 6.19185 2.86668 5.99852C3.06001 5.80518 3.38001 5.80518 3.57335 5.99852L7.92001 10.3452C8.24001 10.6652 8.76001 10.6652 9.08001 10.3452L13.4267 5.99852C13.62 5.80518 13.94 5.80518 14.1333 5.99852C14.3267 6.19185 14.3267 6.51185 14.1333 6.70518L9.78668 11.0518C9.43335 11.4052 8.96668 11.5852 8.50001 11.5852Z" fill="#C3C4C8"/>
<path d="M7.21335 11.0518L6.50624 11.759L7.21335 11.0518ZM2.86668 6.70518L3.57379 5.99808V5.99808L2.86668 6.70518ZM3.57335 5.99852L2.86624 6.70562L3.57335 5.99852ZM7.92001 10.3452L8.62712 9.63808L7.92001 10.3452ZM9.08001 10.3452L9.78712 11.0523L9.08001 10.3452ZM13.4267 5.99852L12.7196 5.29141V5.29141L13.4267 5.99852ZM14.1333 6.70518L13.4262 5.99808V5.99808L14.1333 6.70518ZM9.78668 11.0518L10.4938 11.759L9.78668 11.0518ZM8.50001 10.5852C8.28939 10.5852 8.07986 10.5042 7.92045 10.3447L6.50624 11.759C7.0535 12.3062 7.7773 12.5852 8.50001 12.5852V10.5852ZM7.92045 10.3447L3.57379 5.99808L2.15957 7.41229L6.50624 11.759L7.92045 10.3447ZM3.57379 5.99808C3.77098 6.19527 3.77098 6.50843 3.57379 6.70562L2.15957 5.29141C1.57572 5.87527 1.57572 6.82843 2.15957 7.41229L3.57379 5.99808ZM3.57379 6.70562C3.3766 6.90281 3.06343 6.90281 2.86624 6.70562L4.28045 5.29141C3.6966 4.70755 2.74343 4.70755 2.15957 5.29141L3.57379 6.70562ZM2.86624 6.70562L7.21291 11.0523L8.62712 9.63808L4.28045 5.29141L2.86624 6.70562ZM7.21291 11.0523C7.92343 11.7628 9.0766 11.7628 9.78712 11.0523L8.37291 9.63808C8.44343 9.56755 8.5566 9.56755 8.62712 9.63808L7.21291 11.0523ZM9.78712 11.0523L14.1338 6.70562L12.7196 5.29141L8.37291 9.63808L9.78712 11.0523ZM14.1338 6.70562C13.9366 6.90281 13.6234 6.90281 13.4262 6.70562L14.8405 5.29141C14.2566 4.70755 13.3034 4.70755 12.7196 5.29141L14.1338 6.70562ZM13.4262 6.70562C13.229 6.50843 13.229 6.19527 13.4262 5.99808L14.8405 7.41229C15.4243 6.82843 15.4243 5.87527 14.8405 5.29141L13.4262 6.70562ZM13.4262 5.99808L9.07957 10.3447L10.4938 11.759L14.8405 7.41229L13.4262 5.99808ZM9.07957 10.3447C8.92016 10.5042 8.71064 10.5852 8.50001 10.5852V12.5852C9.22272 12.5852 9.94653 12.3062 10.4938 11.759L9.07957 10.3447Z" fill="#C3C4C8" mask="url(#path-1-inside-1_435_5923)"/>
</svg>
