<svg width="20" height="21" viewBox="0 0 20 21" fill="none" xmlns="http://www.w3.org/2000/svg">
<path d="M15.967 12.3536L15.967 5.19669L12.3332 8.84941C13.6599 7.51566 15.9372 8.44531 15.9515 10.3265L15.967 12.3536Z" fill="black"/>
<path d="M15.967 5.19669L11.1957 5.19669L8.81005 5.19669L10.8253 5.20398C12.7235 5.21085 13.6719 7.50372 12.3332 8.84941L15.967 5.19669Z" fill="black"/>
<path d="M5.55253 15.6111L12.3332 8.84941M15.967 5.19669L11.1957 5.19669L8.81005 5.19669M15.967 5.19669L15.967 12.3536M15.967 5.19669L12.3332 8.84941M6.42441 5.19669L8.81005 5.19669M15.967 14.7392L15.967 12.3536M8.81005 5.19669L10.8253 5.20398C12.7235 5.21085 13.6719 7.50372 12.3332 8.84941V8.84941M15.967 12.3536L15.9515 10.3265C15.9372 8.44531 13.6599 7.51566 12.3332 8.84941V8.84941" stroke="black" stroke-width="2" stroke-linecap="round" stroke-linejoin="round"/>
</svg>
