<svg width="40" height="40" viewBox="0 0 40 40" fill="none" xmlns="http://www.w3.org/2000/svg">
<path d="M25.7 20.0106C25.7 23.1972 25.0356 26.0671 23.9758 28.1295C22.9079 30.2075 21.4863 31.3863 20 31.3863C18.5137 31.3863 17.0921 30.2075 16.0242 28.1295C14.9644 26.0671 14.3 23.1972 14.3 20.0106C14.3 16.8241 14.9644 13.9541 16.0242 11.8918C17.0921 9.81378 18.5137 8.63496 20 8.63496C21.4863 8.63496 22.9079 9.81378 23.9758 11.8918C25.0356 13.9541 25.7 16.8241 25.7 20.0106Z" stroke="url(#paint0_linear_517_4146)" stroke-width="0.6"/>
<path d="M20.0097 13.9768C23.1962 13.9768 26.0662 14.6411 28.1285 15.7009C30.2065 16.7688 31.3853 18.1904 31.3853 19.6768C31.3853 21.1631 30.2065 22.5847 28.1285 23.6526C26.0662 24.7124 23.1962 25.3768 20.0097 25.3768C16.8231 25.3768 13.9532 24.7124 11.8908 23.6526C9.81281 22.5847 8.63398 21.1631 8.63398 19.6768C8.63398 18.1904 9.81281 16.7688 11.8908 15.7009C13.9532 14.6411 16.8231 13.9768 20.0097 13.9768Z" stroke="url(#paint1_linear_517_4146)" stroke-width="0.6"/>
<circle cx="20" cy="20" r="11.7" stroke="url(#paint2_linear_517_4146)" stroke-width="0.6"/>
<defs>
<linearGradient id="paint0_linear_517_4146" x1="23.3291" y1="31.6863" x2="23.3291" y2="8.33496" gradientUnits="userSpaceOnUse">
<stop stop-color="#6D87FF"/>
<stop offset="1" stop-color="#F4F6FA"/>
</linearGradient>
<linearGradient id="paint1_linear_517_4146" x1="31.6853" y1="16.3476" x2="8.33399" y2="16.3476" gradientUnits="userSpaceOnUse">
<stop stop-color="#6D87FF"/>
<stop offset="1" stop-color="#F4F6FA"/>
</linearGradient>
<linearGradient id="paint2_linear_517_4146" x1="26.6582" y1="32" x2="26.6583" y2="8" gradientUnits="userSpaceOnUse">
<stop stop-color="#6D87FF"/>
<stop offset="1" stop-color="#F4F6FA"/>
</linearGradient>
</defs>
</svg>
