<svg width="70" height="70" viewBox="0 0 70 70" fill="none" xmlns="http://www.w3.org/2000/svg">
<rect width="70" height="70" rx="35" fill="white" fill-opacity="0.1"/>
<path d="M23.333 37.916C23.333 34.0806 23.333 32.1629 24.3923 30.8722C24.5862 30.6359 24.8029 30.4192 25.0392 30.2253C26.3299 29.166 28.2476 29.166 32.083 29.166H37.9163C41.7517 29.166 43.6694 29.166 44.9602 30.2253C45.1965 30.4192 45.4131 30.6359 45.6071 30.8722C46.6663 32.1629 46.6663 34.0806 46.6663 37.916C46.6663 41.7514 46.6663 43.6691 45.6071 44.9599C45.4131 45.1961 45.1965 45.4128 44.9602 45.6067C43.6694 46.666 41.7517 46.666 37.9163 46.666H32.083C28.2476 46.666 26.3299 46.666 25.0392 45.6067C24.8029 45.4128 24.5862 45.1961 24.3923 44.9599C23.333 43.6691 23.333 41.7514 23.333 37.916Z" stroke="white" stroke-width="1.5" stroke-linecap="round"/>
<path d="M35 29.1663V26.833C35 26.1887 35.5223 25.6663 36.1667 25.6663C36.811 25.6663 37.3333 25.144 37.3333 24.4997V23.333" stroke="white" stroke-width="1.5" stroke-linecap="round" stroke-linejoin="round"/>
<path d="M32.666 39.666L30.916 37.916M30.916 37.916L29.166 36.166M30.916 37.916L29.166 39.666M30.916 37.916L32.666 36.166" stroke="white" stroke-width="1.5" stroke-linecap="round"/>
<path d="M40.833 39.0833L40.833 36.75" stroke="white" stroke-width="1.5" stroke-linecap="round" stroke-linejoin="round"/>
</svg>
