<svg width="70" height="70" viewBox="0 0 70 70" fill="none" xmlns="http://www.w3.org/2000/svg">
<rect width="70" height="70" rx="35" fill="white"/>
<path d="M44.7521 36.5832C43.3644 37.9707 40.7533 37.9167 36.7497 37.9167C34.174 37.9167 32.0856 35.8252 32.0843 33.2495C32.0843 29.2487 32.0303 26.6361 33.418 25.2486C34.8057 23.8611 35.4186 23.9173 41.5659 23.9173C42.16 23.9148 42.459 24.6332 42.039 25.0533L38.8738 28.2187C38.0704 29.0221 38.0682 30.3247 38.8717 31.1281C39.6752 31.9314 40.9779 31.9315 41.7815 31.1283L44.9475 27.9636C45.3676 27.5437 46.0862 27.8426 46.0837 28.4366C46.0837 34.5829 46.1398 35.1957 44.7521 36.5832Z" stroke="#141B34" stroke-width="1.5"/>
<path d="M36.7503 37.9167L29.5502 45.1168C28.2615 46.4055 26.1722 46.4055 24.8835 45.1168C23.5948 43.8282 23.5948 41.7388 24.8835 40.4502L32.0837 33.25" stroke="#141B34" stroke-width="1.5" stroke-linecap="round"/>
<path d="M27.4274 42.584H27.417" stroke="#141B34" stroke-width="2" stroke-linecap="round" stroke-linejoin="round"/>
</svg>
