<svg width="70" height="70" viewBox="0 0 70 70" fill="none" xmlns="http://www.w3.org/2000/svg">
<rect width="70" height="70" rx="35" fill="white"/>
<path d="M26.25 34.9995C26.25 32.0973 26.25 30.6461 27.0341 29.6151C27.1197 29.5025 27.2114 29.3949 27.3089 29.2927C28.2012 28.3572 29.6132 28.152 32.4372 27.7416L35.1893 27.3415C39.1725 26.7626 41.164 26.4732 42.457 27.6141C43.75 28.755 43.75 30.8018 43.75 34.8953V35.1037C43.75 39.1973 43.75 41.2441 42.457 42.385C41.164 43.5259 39.1725 43.2364 35.1893 42.6575L32.4372 42.2575C29.6132 41.8471 28.2012 41.6419 27.3089 40.7063C27.2114 40.6042 27.1197 40.4966 27.0341 40.384C26.25 39.3529 26.25 37.9018 26.25 34.9995Z" stroke="#141B34" stroke-width="1.5"/>
<path d="M35.0007 46.6663L35.0006 23.333M23.334 34.9997H46.6673" stroke="#141B34" stroke-width="1.5" stroke-linecap="round"/>
</svg>
