<svg width="40" height="40" viewBox="0 0 40 40" fill="none" xmlns="http://www.w3.org/2000/svg">
<path d="M20 5.85742L20.2525 6.10996L8.09914 18.2634L7.8466 18.0108L20 5.85742Z" fill="url(#paint0_linear_517_4186)"/>
<path d="M20.5051 6.3625L20.7576 6.61504L8.60422 18.7684L8.35168 18.5159L20.5051 6.3625Z" fill="url(#paint1_linear_517_4186)"/>
<path d="M21.2627 7.12011L9.10929 19.2735L8.85675 19.021L21.0102 6.86757L21.2627 7.12011Z" fill="url(#paint2_linear_517_4186)"/>
<path d="M21.5152 7.37265L21.7678 7.62519L9.61437 19.7786L9.36183 19.526L21.5152 7.37265Z" fill="url(#paint3_linear_517_4186)"/>
<path d="M30.3856 20.2205L30.6382 20.4731L18.4848 32.6265L18.2322 32.3739L30.3856 20.2205Z" fill="url(#paint4_linear_517_4186)"/>
<path d="M30.8907 20.7256L31.1432 20.9781L18.9898 33.1315L18.7373 32.879L30.8907 20.7256Z" fill="url(#paint5_linear_517_4186)"/>
<path d="M31.6483 21.4832L19.4949 33.6366L19.2424 33.3841L31.3958 21.2307L31.6483 21.4832Z" fill="url(#paint6_linear_517_4186)"/>
<path d="M31.9009 21.7358L32.1534 21.9883L20 34.1417L19.7475 33.8892L31.9009 21.7358Z" fill="url(#paint7_linear_517_4186)"/>
<path d="M21.9887 7.84616L21.7362 8.0987L33.8896 20.2521L34.1421 19.9996L21.9887 7.84616Z" fill="url(#paint8_linear_517_4186)"/>
<path d="M33.6371 20.5046L21.4837 8.35124L21.2311 8.60377L33.3845 20.7572L33.6371 20.5046Z" fill="url(#paint9_linear_517_4186)"/>
<path d="M20.9786 8.85631L20.726 9.10885L32.8794 21.2622L33.132 21.0097L20.9786 8.85631Z" fill="url(#paint10_linear_517_4186)"/>
<path d="M20.4735 9.36139L20.221 9.61393L32.3744 21.7673L32.6269 21.5148L20.4735 9.36139Z" fill="url(#paint11_linear_517_4186)"/>
<path d="M7.37309 18.4843L7.62563 18.2318L19.779 30.3852L19.5265 30.6377L7.37309 18.4843Z" fill="url(#paint12_linear_517_4186)"/>
<path d="M7.12056 18.7369L19.274 30.8903L19.0214 31.1428L6.86802 18.9894L7.12056 18.7369Z" fill="url(#paint13_linear_517_4186)"/>
<path d="M6.36294 19.4945L6.61548 19.2419L18.7689 31.3953L18.5163 31.6479L6.36294 19.4945Z" fill="url(#paint14_linear_517_4186)"/>
<path d="M5.85786 19.9996L6.1104 19.747L18.2638 31.9004L18.0113 32.153L5.85786 19.9996Z" fill="url(#paint15_linear_517_4186)"/>
<path d="M28.8418 20L28.684 20.1578L21.0881 12.562L21.2459 12.4041L28.8418 20Z" fill="url(#paint16_linear_517_4186)"/>
<path d="M28.5261 20.3157L28.3683 20.4735L20.7724 12.8776L20.9303 12.7198L28.5261 20.3157Z" fill="url(#paint17_linear_517_4186)"/>
<path d="M28.0526 20.7892L20.4567 13.1933L20.6146 13.0355L28.2105 20.6313L28.0526 20.7892Z" fill="url(#paint18_linear_517_4186)"/>
<path d="M27.8948 20.947L27.7369 21.1049L20.1411 13.509L20.2989 13.3511L27.8948 20.947Z" fill="url(#paint19_linear_517_4186)"/>
<path d="M19.8649 26.491L19.707 26.6489L12.1111 19.053L12.269 18.8951L19.8649 26.491Z" fill="url(#paint20_linear_517_4186)"/>
<path d="M19.5492 26.8067L19.3913 26.9645L11.7955 19.3687L11.9533 19.2108L19.5492 26.8067Z" fill="url(#paint21_linear_517_4186)"/>
<path d="M19.0757 27.2802L11.4798 19.6843L11.6376 19.5265L19.2335 27.1224L19.0757 27.2802Z" fill="url(#paint22_linear_517_4186)"/>
<path d="M18.9178 27.438L18.76 27.5959L11.1641 20L11.322 19.8422L18.9178 27.438Z" fill="url(#paint23_linear_517_4186)"/>
<path d="M27.5988 21.243L27.441 21.0851L19.8451 28.681L20.003 28.8388L27.5988 21.243Z" fill="url(#paint24_linear_517_4186)"/>
<path d="M19.6873 28.5232L27.2832 20.9273L27.1253 20.7695L19.5295 28.3653L19.6873 28.5232Z" fill="url(#paint25_linear_517_4186)"/>
<path d="M26.9675 20.6116L26.8097 20.4538L19.2138 28.0497L19.3716 28.2075L26.9675 20.6116Z" fill="url(#paint26_linear_517_4186)"/>
<path d="M26.6518 20.2959L26.494 20.1381L18.8981 27.734L19.0559 27.8918L26.6518 20.2959Z" fill="url(#paint27_linear_517_4186)"/>
<path d="M20.95 12.1082L21.1078 12.266L13.5119 19.8619L13.3541 19.7041L20.95 12.1082Z" fill="url(#paint28_linear_517_4186)"/>
<path d="M20.7921 11.9503L13.1963 19.5462L13.0384 19.3884L20.6343 11.7925L20.7921 11.9503Z" fill="url(#paint29_linear_517_4186)"/>
<path d="M20.3186 11.4768L20.4765 11.6347L12.8806 19.2305L12.7228 19.0727L20.3186 11.4768Z" fill="url(#paint30_linear_517_4186)"/>
<path d="M20.003 11.1612L20.1608 11.319L12.5649 18.9149L12.4071 18.757L20.003 11.1612Z" fill="url(#paint31_linear_517_4186)"/>
<defs>
<linearGradient id="paint0_linear_517_4186" x1="16.8523" y1="30.994" x2="30.9945" y2="16.8519" gradientUnits="userSpaceOnUse">
<stop stop-color="#6D87FF"/>
<stop offset="1" stop-color="#F4F6FA"/>
</linearGradient>
<linearGradient id="paint1_linear_517_4186" x1="16.8523" y1="30.994" x2="30.9945" y2="16.8519" gradientUnits="userSpaceOnUse">
<stop stop-color="#6D87FF"/>
<stop offset="1" stop-color="#F4F6FA"/>
</linearGradient>
<linearGradient id="paint2_linear_517_4186" x1="16.8523" y1="30.994" x2="30.9945" y2="16.8519" gradientUnits="userSpaceOnUse">
<stop stop-color="#6D87FF"/>
<stop offset="1" stop-color="#F4F6FA"/>
</linearGradient>
<linearGradient id="paint3_linear_517_4186" x1="16.8523" y1="30.994" x2="30.9945" y2="16.8519" gradientUnits="userSpaceOnUse">
<stop stop-color="#6D87FF"/>
<stop offset="1" stop-color="#F4F6FA"/>
</linearGradient>
<linearGradient id="paint4_linear_517_4186" x1="16.8523" y1="30.994" x2="30.9945" y2="16.8519" gradientUnits="userSpaceOnUse">
<stop stop-color="#6D87FF"/>
<stop offset="1" stop-color="#F4F6FA"/>
</linearGradient>
<linearGradient id="paint5_linear_517_4186" x1="16.8523" y1="30.994" x2="30.9945" y2="16.8519" gradientUnits="userSpaceOnUse">
<stop stop-color="#6D87FF"/>
<stop offset="1" stop-color="#F4F6FA"/>
</linearGradient>
<linearGradient id="paint6_linear_517_4186" x1="16.8523" y1="30.994" x2="30.9945" y2="16.8519" gradientUnits="userSpaceOnUse">
<stop stop-color="#6D87FF"/>
<stop offset="1" stop-color="#F4F6FA"/>
</linearGradient>
<linearGradient id="paint7_linear_517_4186" x1="16.8523" y1="30.994" x2="30.9945" y2="16.8519" gradientUnits="userSpaceOnUse">
<stop stop-color="#6D87FF"/>
<stop offset="1" stop-color="#F4F6FA"/>
</linearGradient>
<linearGradient id="paint8_linear_517_4186" x1="16.8523" y1="30.994" x2="30.9945" y2="16.8519" gradientUnits="userSpaceOnUse">
<stop stop-color="#6D87FF"/>
<stop offset="1" stop-color="#F4F6FA"/>
</linearGradient>
<linearGradient id="paint9_linear_517_4186" x1="16.8523" y1="30.994" x2="30.9945" y2="16.8519" gradientUnits="userSpaceOnUse">
<stop stop-color="#6D87FF"/>
<stop offset="1" stop-color="#F4F6FA"/>
</linearGradient>
<linearGradient id="paint10_linear_517_4186" x1="16.8523" y1="30.994" x2="30.9945" y2="16.8519" gradientUnits="userSpaceOnUse">
<stop stop-color="#6D87FF"/>
<stop offset="1" stop-color="#F4F6FA"/>
</linearGradient>
<linearGradient id="paint11_linear_517_4186" x1="16.8523" y1="30.994" x2="30.9945" y2="16.8519" gradientUnits="userSpaceOnUse">
<stop stop-color="#6D87FF"/>
<stop offset="1" stop-color="#F4F6FA"/>
</linearGradient>
<linearGradient id="paint12_linear_517_4186" x1="16.8523" y1="30.994" x2="30.9945" y2="16.8519" gradientUnits="userSpaceOnUse">
<stop stop-color="#6D87FF"/>
<stop offset="1" stop-color="#F4F6FA"/>
</linearGradient>
<linearGradient id="paint13_linear_517_4186" x1="16.8523" y1="30.994" x2="30.9945" y2="16.8519" gradientUnits="userSpaceOnUse">
<stop stop-color="#6D87FF"/>
<stop offset="1" stop-color="#F4F6FA"/>
</linearGradient>
<linearGradient id="paint14_linear_517_4186" x1="16.8523" y1="30.994" x2="30.9945" y2="16.8519" gradientUnits="userSpaceOnUse">
<stop stop-color="#6D87FF"/>
<stop offset="1" stop-color="#F4F6FA"/>
</linearGradient>
<linearGradient id="paint15_linear_517_4186" x1="16.8523" y1="30.994" x2="30.9945" y2="16.8519" gradientUnits="userSpaceOnUse">
<stop stop-color="#6D87FF"/>
<stop offset="1" stop-color="#F4F6FA"/>
</linearGradient>
<linearGradient id="paint16_linear_517_4186" x1="13.1314" y1="18.0327" x2="21.9702" y2="26.8715" gradientUnits="userSpaceOnUse">
<stop stop-color="#6D87FF"/>
<stop offset="1" stop-color="#F4F6FA"/>
</linearGradient>
<linearGradient id="paint17_linear_517_4186" x1="13.1314" y1="18.0327" x2="21.9702" y2="26.8715" gradientUnits="userSpaceOnUse">
<stop stop-color="#6D87FF"/>
<stop offset="1" stop-color="#F4F6FA"/>
</linearGradient>
<linearGradient id="paint18_linear_517_4186" x1="13.1314" y1="18.0327" x2="21.9702" y2="26.8715" gradientUnits="userSpaceOnUse">
<stop stop-color="#6D87FF"/>
<stop offset="1" stop-color="#F4F6FA"/>
</linearGradient>
<linearGradient id="paint19_linear_517_4186" x1="13.1314" y1="18.0327" x2="21.9702" y2="26.8715" gradientUnits="userSpaceOnUse">
<stop stop-color="#6D87FF"/>
<stop offset="1" stop-color="#F4F6FA"/>
</linearGradient>
<linearGradient id="paint20_linear_517_4186" x1="13.1314" y1="18.0327" x2="21.9702" y2="26.8715" gradientUnits="userSpaceOnUse">
<stop stop-color="#6D87FF"/>
<stop offset="1" stop-color="#F4F6FA"/>
</linearGradient>
<linearGradient id="paint21_linear_517_4186" x1="13.1314" y1="18.0327" x2="21.9702" y2="26.8715" gradientUnits="userSpaceOnUse">
<stop stop-color="#6D87FF"/>
<stop offset="1" stop-color="#F4F6FA"/>
</linearGradient>
<linearGradient id="paint22_linear_517_4186" x1="13.1314" y1="18.0327" x2="21.9702" y2="26.8715" gradientUnits="userSpaceOnUse">
<stop stop-color="#6D87FF"/>
<stop offset="1" stop-color="#F4F6FA"/>
</linearGradient>
<linearGradient id="paint23_linear_517_4186" x1="13.1314" y1="18.0327" x2="21.9702" y2="26.8715" gradientUnits="userSpaceOnUse">
<stop stop-color="#6D87FF"/>
<stop offset="1" stop-color="#F4F6FA"/>
</linearGradient>
<linearGradient id="paint24_linear_517_4186" x1="13.1314" y1="18.0327" x2="21.9702" y2="26.8715" gradientUnits="userSpaceOnUse">
<stop stop-color="#6D87FF"/>
<stop offset="1" stop-color="#F4F6FA"/>
</linearGradient>
<linearGradient id="paint25_linear_517_4186" x1="13.1314" y1="18.0327" x2="21.9702" y2="26.8715" gradientUnits="userSpaceOnUse">
<stop stop-color="#6D87FF"/>
<stop offset="1" stop-color="#F4F6FA"/>
</linearGradient>
<linearGradient id="paint26_linear_517_4186" x1="13.1314" y1="18.0327" x2="21.9702" y2="26.8715" gradientUnits="userSpaceOnUse">
<stop stop-color="#6D87FF"/>
<stop offset="1" stop-color="#F4F6FA"/>
</linearGradient>
<linearGradient id="paint27_linear_517_4186" x1="13.1314" y1="18.0327" x2="21.9702" y2="26.8715" gradientUnits="userSpaceOnUse">
<stop stop-color="#6D87FF"/>
<stop offset="1" stop-color="#F4F6FA"/>
</linearGradient>
<linearGradient id="paint28_linear_517_4186" x1="13.1314" y1="18.0327" x2="21.9702" y2="26.8715" gradientUnits="userSpaceOnUse">
<stop stop-color="#6D87FF"/>
<stop offset="1" stop-color="#F4F6FA"/>
</linearGradient>
<linearGradient id="paint29_linear_517_4186" x1="13.1314" y1="18.0327" x2="21.9702" y2="26.8715" gradientUnits="userSpaceOnUse">
<stop stop-color="#6D87FF"/>
<stop offset="1" stop-color="#F4F6FA"/>
</linearGradient>
<linearGradient id="paint30_linear_517_4186" x1="13.1314" y1="18.0327" x2="21.9702" y2="26.8715" gradientUnits="userSpaceOnUse">
<stop stop-color="#6D87FF"/>
<stop offset="1" stop-color="#F4F6FA"/>
</linearGradient>
<linearGradient id="paint31_linear_517_4186" x1="13.1314" y1="18.0327" x2="21.9702" y2="26.8715" gradientUnits="userSpaceOnUse">
<stop stop-color="#6D87FF"/>
<stop offset="1" stop-color="#F4F6FA"/>
</linearGradient>
</defs>
</svg>
