<svg width="21" height="16" viewBox="0 0 21 16" fill="none" xmlns="http://www.w3.org/2000/svg">
<g clip-path="url(#clip0_435_5886)">
<rect x="0.5" y="0.884766" width="20" height="15" rx="3.33333" fill="white"/>
<path fill-rule="evenodd" clip-rule="evenodd" d="M0.5 0.884766H20.5V15.8848H0.5V0.884766Z" fill="white"/>
<path fill-rule="evenodd" clip-rule="evenodd" d="M0.5 10.0508V11.3008H20.5V10.0508H0.5Z" fill="#E31D1C"/>
<path fill-rule="evenodd" clip-rule="evenodd" d="M0.5 12.3438V13.5938H20.5V12.3438H0.5Z" fill="#E31D1C"/>
<path fill-rule="evenodd" clip-rule="evenodd" d="M0.5 5.46875V6.71875H20.5V5.46875H0.5Z" fill="#E31D1C"/>
<path fill-rule="evenodd" clip-rule="evenodd" d="M0.5 14.6348V15.8848H20.5V14.6348H0.5Z" fill="#E31D1C"/>
<path fill-rule="evenodd" clip-rule="evenodd" d="M0.5 7.75977V9.00977H20.5V7.75977H0.5Z" fill="#E31D1C"/>
<path fill-rule="evenodd" clip-rule="evenodd" d="M0.5 0.884766V2.13477H20.5V0.884766H0.5Z" fill="#E31D1C"/>
<path fill-rule="evenodd" clip-rule="evenodd" d="M0.5 3.17578V4.42578H20.5V3.17578H0.5Z" fill="#E31D1C"/>
<rect x="0.5" y="0.884766" width="12.5" height="8.125" fill="#2E42A5"/>
<path fill-rule="evenodd" clip-rule="evenodd" d="M4.07638 2.72085L3.62271 3.0389L3.77587 2.47289L3.37292 2.1142H3.89923L4.07575 1.65228L4.28273 2.1142H4.73139L4.37887 2.47289L4.51534 3.0389L4.07638 2.72085ZM1.5765 2.72091L1.12283 3.03896L1.27599 2.47296L0.873047 2.11426H1.39935L1.57587 1.65234L1.78285 2.11426H2.23151L1.87899 2.47296L2.01547 3.03896L1.5765 2.72091ZM6.12271 3.0389L6.57638 2.72085L7.01534 3.0389L6.87887 2.47289L7.23139 2.1142H6.78273L6.57575 1.65228L6.39923 2.1142H5.87292L6.27587 2.47289L6.12271 3.0389ZM9.07638 2.72085L8.62271 3.0389L8.77587 2.47289L8.37292 2.1142H8.89923L9.07575 1.65228L9.28273 2.1142H9.73139L9.37887 2.47289L9.51534 3.0389L9.07638 2.72085ZM1.12271 5.5389L1.57638 5.22085L2.01534 5.5389L1.87887 4.97289L2.23139 4.6142H1.78273L1.57575 4.15228L1.39923 4.6142H0.872925L1.27587 4.97289L1.12271 5.5389ZM4.07638 5.22085L3.62271 5.5389L3.77587 4.97289L3.37292 4.6142H3.89923L4.07575 4.15228L4.28273 4.6142H4.73139L4.37887 4.97289L4.51534 5.5389L4.07638 5.22085ZM6.12271 5.5389L6.57638 5.22085L7.01534 5.5389L6.87887 4.97289L7.23139 4.6142H6.78273L6.57575 4.15228L6.39923 4.6142H5.87292L6.27587 4.97289L6.12271 5.5389ZM9.07638 5.22085L8.62271 5.5389L8.77587 4.97289L8.37292 4.6142H8.89923L9.07575 4.15228L9.28273 4.6142H9.73139L9.37887 4.97289L9.51534 5.5389L9.07638 5.22085ZM1.12271 8.0389L1.57638 7.72085L2.01534 8.0389L1.87887 7.47289L2.23139 7.1142H1.78273L1.57575 6.65228L1.39923 7.1142H0.872925L1.27587 7.47289L1.12271 8.0389ZM4.07638 7.72085L3.62271 8.0389L3.77587 7.47289L3.37292 7.1142H3.89923L4.07575 6.65228L4.28273 7.1142H4.73139L4.37887 7.47289L4.51534 8.0389L4.07638 7.72085ZM6.12271 8.0389L6.57638 7.72085L7.01534 8.0389L6.87887 7.47289L7.23139 7.1142H6.78273L6.57575 6.65228L6.39923 7.1142H5.87292L6.27587 7.47289L6.12271 8.0389ZM9.07638 7.72085L8.62271 8.0389L8.77587 7.47289L8.37292 7.1142H8.89923L9.07575 6.65228L9.28273 7.1142H9.73139L9.37887 7.47289L9.51534 8.0389L9.07638 7.72085ZM11.1227 3.0389L11.5764 2.72085L12.0153 3.0389L11.8789 2.47289L12.2314 2.1142H11.7827L11.5757 1.65228L11.3992 2.1142H10.8729L11.2759 2.47289L11.1227 3.0389ZM11.5764 5.22085L11.1227 5.5389L11.2759 4.97289L10.8729 4.6142H11.3992L11.5757 4.15228L11.7827 4.6142H12.2314L11.8789 4.97289L12.0153 5.5389L11.5764 5.22085ZM11.1227 8.0389L11.5764 7.72085L12.0153 8.0389L11.8789 7.47289L12.2314 7.1142H11.7827L11.5757 6.65228L11.3992 7.1142H10.8729L11.2759 7.47289L11.1227 8.0389ZM2.82638 3.97085L2.37271 4.2889L2.52587 3.72289L2.12292 3.3642H2.64923L2.82575 2.90228L3.03273 3.3642H3.48139L3.12887 3.72289L3.26534 4.2889L2.82638 3.97085ZM4.87271 4.2889L5.32638 3.97085L5.76534 4.2889L5.62887 3.72289L5.98139 3.3642H5.53273L5.32575 2.90228L5.14923 3.3642H4.62292L5.02587 3.72289L4.87271 4.2889ZM7.82638 3.97085L7.37271 4.2889L7.52587 3.72289L7.12292 3.3642H7.64923L7.82575 2.90228L8.03273 3.3642H8.48139L8.12887 3.72289L8.26534 4.2889L7.82638 3.97085ZM2.37271 6.7889L2.82638 6.47085L3.26534 6.7889L3.12887 6.22289L3.48139 5.8642H3.03273L2.82575 5.40228L2.64923 5.8642H2.12292L2.52587 6.22289L2.37271 6.7889ZM5.32638 6.47085L4.87271 6.7889L5.02587 6.22289L4.62292 5.8642H5.14923L5.32575 5.40228L5.53273 5.8642H5.98139L5.62887 6.22289L5.76534 6.7889L5.32638 6.47085ZM7.37271 6.7889L7.82638 6.47085L8.26534 6.7889L8.12887 6.22289L8.48139 5.8642H8.03273L7.82575 5.40228L7.64923 5.8642H7.12292L7.52587 6.22289L7.37271 6.7889ZM10.3264 3.97085L9.87271 4.2889L10.0259 3.72289L9.62292 3.3642H10.1492L10.3257 2.90228L10.5327 3.3642H10.9814L10.6289 3.72289L10.7653 4.2889L10.3264 3.97085ZM9.87271 6.7889L10.3264 6.47085L10.7653 6.7889L10.6289 6.22289L10.9814 5.8642H10.5327L10.3257 5.40228L10.1492 5.8642H9.62292L10.0259 6.22289L9.87271 6.7889Z" fill="white"/>
</g>
<defs>
<clipPath id="clip0_435_5886">
<rect x="0.5" y="0.884766" width="20" height="15" rx="3.33333" fill="white"/>
</clipPath>
</defs>
</svg>
