<svg width="70" height="71" viewBox="0 0 70 71" fill="none" xmlns="http://www.w3.org/2000/svg">
<rect y="0.5" width="70" height="70" rx="35" fill="#D5DAE9" fill-opacity="0.3"/>
<path d="M35.0013 31.9987C33.7126 31.9987 32.668 32.7822 32.668 33.7487C32.668 34.7152 33.7126 35.4987 35.0013 35.4987C36.29 35.4987 37.3346 36.2822 37.3346 37.2487C37.3346 38.2152 36.29 38.9987 35.0013 38.9987M35.0013 31.9987C36.0172 31.9987 36.8815 32.4857 37.2019 33.1654M35.0013 31.9987V30.832M35.0013 38.9987C33.9854 38.9987 33.1211 38.5117 32.8007 37.832M35.0013 38.9987V40.1654" stroke="#141B34" stroke-width="1.5" stroke-linecap="round"/>
<path d="M36.7493 24.416C36.7493 24.416 35.7972 24.416 34.9993 24.416C29.7746 24.416 27.1622 24.416 25.5391 26.0391C23.916 27.6623 23.916 30.2746 23.916 35.4994C23.916 40.7241 23.916 43.3365 25.5391 44.9596C27.1622 46.5827 29.7746 46.5827 34.9993 46.5827C40.2241 46.5827 42.8364 46.5827 44.4596 44.9596C46.0827 43.3365 46.0827 40.7241 46.0827 35.4994C46.0827 34.7015 46.0827 33.7493 46.0827 33.7493" stroke="#141B34" stroke-width="1.5" stroke-linecap="round"/>
<path d="M46.0808 25.5272C46.375 25.2357 46.3772 24.7608 46.0857 24.4666C45.7942 24.1723 45.3193 24.1701 45.025 24.4617L46.0808 25.5272ZM39.726 29.7117C39.4318 30.0033 39.4296 30.4781 39.7211 30.7724C40.0127 31.0666 40.4875 31.0688 40.7818 30.7773L39.726 29.7117ZM44.9536 24.676L44.8228 25.4145V25.4145L44.9536 24.676ZM45.8222 25.5448L46.5607 25.4142V25.4142L45.8222 25.5448ZM40.8473 23.6661C40.4331 23.6604 40.0928 23.9916 40.0871 24.4058C40.0815 24.8199 40.4126 25.1603 40.8268 25.1659L40.8473 23.6661ZM45.3322 29.6714C45.3379 30.0856 45.6783 30.4168 46.0924 30.4111C46.5066 30.4054 46.8377 30.065 46.8321 29.6508L45.3322 29.6714ZM45.025 24.4617L39.726 29.7117L40.7818 30.7773L46.0808 25.5272L45.025 24.4617ZM44.8228 25.4145C44.9692 25.4405 45.0577 25.5289 45.0836 25.6755L46.5607 25.4142C46.4251 24.6476 45.8512 24.0733 45.0844 23.9375L44.8228 25.4145ZM45.0844 23.9375C43.9125 23.73 41.8262 23.6795 40.8473 23.6661L40.8268 25.1659C41.8364 25.1798 43.7936 25.2323 44.8228 25.4145L45.0844 23.9375ZM46.8321 29.6508C46.8186 28.672 46.768 26.5859 46.5607 25.4142L45.0836 25.6755C45.2657 26.7048 45.3183 28.6619 45.3322 29.6714L46.8321 29.6508Z" fill="#141B34"/>
</svg>
