<svg width="70" height="71" viewBox="0 0 70 71" fill="none" xmlns="http://www.w3.org/2000/svg">
<rect y="0.5" width="70" height="70" rx="35" fill="#D5DAE9" fill-opacity="0.3"/>
<path d="M40.834 34.1052C40.834 33.702 40.834 33.5004 40.8947 33.3206C41.0711 32.7985 41.5361 32.5959 42.0019 32.3837C42.5256 32.1452 42.7875 32.0259 43.047 32.0049C43.3415 31.9811 43.6366 32.0445 43.8883 32.1858C44.2221 32.3731 44.4549 32.7291 44.6932 33.0185C45.7938 34.3553 46.3441 35.0237 46.5454 35.7608C46.7079 36.3556 46.7079 36.9777 46.5454 37.5725C46.2517 38.6476 45.3239 39.5488 44.6371 40.383C44.2858 40.8097 44.1101 41.023 43.8883 41.1475C43.6366 41.2888 43.3415 41.3523 43.047 41.3284C42.7875 41.3074 42.5256 41.1882 42.0019 40.9496C41.5361 40.7374 41.0711 40.5348 40.8947 40.0127C40.834 39.833 40.834 39.6314 40.834 39.2281V34.1052Z" stroke="#141B34" stroke-width="1.5"/>
<path d="M29.168 34.1054C29.168 33.5976 29.1537 33.1412 28.7432 32.7842C28.5939 32.6544 28.3959 32.5642 28 32.3839C27.4763 32.1453 27.2145 32.0261 26.955 32.0051C26.1765 31.9421 25.7577 32.4734 25.3088 33.0187C24.2082 34.3555 23.6579 35.0239 23.4565 35.761C23.294 36.3558 23.294 36.9779 23.4565 37.5727C23.7502 38.6478 24.6781 39.5489 25.3649 40.3831C25.7978 40.909 26.2114 41.3888 26.955 41.3286C27.2145 41.3076 27.4763 41.1884 28 40.9498C28.3959 40.7695 28.5939 40.6793 28.7432 40.5495C29.1537 40.1925 29.168 39.7361 29.168 39.2283V34.1054Z" stroke="#141B34" stroke-width="1.5"/>
<path d="M26.834 32C26.834 28.134 30.4903 25 35.0007 25C39.511 25 43.1673 28.134 43.1673 32" stroke="#141B34" stroke-width="1.5" stroke-linecap="square" stroke-linejoin="round"/>
<path d="M43.168 41.334V42.2673C43.168 44.3292 41.0786 46.0007 38.5013 46.0007H36.168" stroke="#141B34" stroke-width="1.5" stroke-linecap="round" stroke-linejoin="round"/>
</svg>
