<svg width="62" height="62" viewBox="0 0 62 62" fill="none" xmlns="http://www.w3.org/2000/svg">
<rect x="0.5" y="0.5" width="61" height="61" rx="30.5" stroke="#7082B3" stroke-opacity="0.2"/>
<path opacity="0.4" d="M31 26.666V32.0827" stroke="#6279E5" stroke-width="1.5" stroke-linecap="round" stroke-linejoin="round"/>
<path d="M31.0007 41.8333C25.7682 41.8333 21.5215 37.5867 21.5215 32.3542C21.5215 27.1217 25.7682 22.875 31.0007 22.875C36.2331 22.875 40.4798 27.1217 40.4798 32.3542" stroke="#6279E5" stroke-width="1.5" stroke-linecap="round" stroke-linejoin="round"/>
<path opacity="0.4" d="M27.75 20.166H34.25" stroke="#6279E5" stroke-width="1.5" stroke-miterlimit="10" stroke-linecap="round" stroke-linejoin="round"/>
<path opacity="0.4" d="M34.1426 38.0409V36.7843C34.1426 35.2351 35.2476 34.5959 36.5909 35.3759L37.6742 36.0043L38.7576 36.6326C40.1009 37.4126 40.1009 38.6801 38.7576 39.4601L37.6742 40.0884L36.5909 40.7168C35.2476 41.4968 34.1426 40.8576 34.1426 39.3084V38.0409Z" stroke="#6279E5" stroke-width="1.5" stroke-miterlimit="10" stroke-linecap="round" stroke-linejoin="round"/>
</svg>
