<svg width="62" height="62" viewBox="0 0 62 62" fill="none" xmlns="http://www.w3.org/2000/svg">
<rect x="0.5" y="0.5" width="61" height="61" rx="30.5" stroke="#7082B3" stroke-opacity="0.2"/>
<path d="M32.094 21.1637L38.4856 24.002C40.3273 24.8145 40.3273 26.1578 38.4856 26.9703L32.094 29.8087C31.3682 30.1337 30.1765 30.1337 29.4507 29.8087L23.059 26.9703C21.2173 26.1578 21.2173 24.8145 23.059 24.002L29.4507 21.1637C30.1765 20.8387 31.3682 20.8387 32.094 21.1637Z" stroke="#6279E5" stroke-width="1.5" stroke-linecap="round" stroke-linejoin="round"/>
<path opacity="0.4" d="M21.25 29.916C21.25 30.826 21.9325 31.8768 22.7667 32.2452L30.1225 35.5168C30.6858 35.766 31.325 35.766 31.8775 35.5168L39.2333 32.2452C40.0675 31.8768 40.75 30.826 40.75 29.916" stroke="#6279E5" stroke-width="1.5" stroke-linecap="round" stroke-linejoin="round"/>
<path opacity="0.4" d="M21.25 35.334C21.25 36.3415 21.8458 37.2515 22.7667 37.6632L30.1225 40.9348C30.6858 41.184 31.325 41.184 31.8775 40.9348L39.2333 37.6632C40.1542 37.2515 40.75 36.3415 40.75 35.334" stroke="#6279E5" stroke-width="1.5" stroke-linecap="round" stroke-linejoin="round"/>
</svg>
