<svg width="62" height="62" viewBox="0 0 62 62" fill="none" xmlns="http://www.w3.org/2000/svg">
<rect x="0.5" y="0.5" width="61" height="61" rx="30.5" stroke="#7082B3" stroke-opacity="0.2"/>
<path d="M29.916 26.666H32.0827C35.1468 26.666 36.6789 26.666 37.6308 27.6179C38.5827 28.5698 38.5827 30.1019 38.5827 33.166C38.5827 36.2301 38.5827 37.7622 37.6308 38.7141C36.6789 39.666 35.1468 39.666 32.0827 39.666H30.9993C30.9993 39.666 30.4577 41.8327 26.666 41.8327C26.666 41.8327 27.7493 40.7399 27.7493 39.6472C26.0664 39.5965 25.0627 39.4089 24.3679 38.7141C23.416 37.7622 23.416 36.2301 23.416 33.166C23.416 30.1019 23.416 28.5698 24.3679 27.6179C25.3198 26.666 26.8519 26.666 29.916 26.666Z" stroke="#6279E5" stroke-width="1.5" stroke-linejoin="round"/>
<path d="M38.582 30.457H39.1237C40.1362 30.457 40.6424 30.457 41.0195 30.6747C41.2666 30.8174 41.4717 31.0225 41.6143 31.2695C41.832 31.6466 41.832 32.1529 41.832 33.1654C41.832 34.1779 41.832 34.6841 41.6143 35.0612C41.4717 35.3082 41.2666 35.5134 41.0195 35.656C40.6424 35.8737 40.1362 35.8737 39.1237 35.8737H38.582" stroke="#6279E5" stroke-opacity="0.6" stroke-width="1.5" stroke-linejoin="round"/>
<path d="M23.416 30.457H22.8743C21.8618 30.457 21.3556 30.457 20.9785 30.6747C20.7315 30.8174 20.5263 31.0225 20.3837 31.2695C20.166 31.6466 20.166 32.1529 20.166 33.1654C20.166 34.1779 20.166 34.6841 20.3837 35.0612C20.5263 35.3082 20.7315 35.5134 20.9785 35.656C21.3556 35.8737 21.8618 35.8737 22.8743 35.8737H23.416" stroke="#6279E5" stroke-opacity="0.6" stroke-width="1.5" stroke-linejoin="round"/>
<path d="M32.625 21.791C32.625 22.6885 31.8975 23.416 31 23.416C30.1025 23.416 29.375 22.6885 29.375 21.791C29.375 20.8936 30.1025 20.166 31 20.166C31.8975 20.166 32.625 20.8936 32.625 21.791Z" stroke="#6279E5" stroke-width="1.5"/>
<path d="M31 23.416V26.666" stroke="#6279E5" stroke-width="1.5" stroke-linecap="round" stroke-linejoin="round"/>
<path d="M27.75 31V32.0833M34.25 31V32.0833" stroke="#6279E5" stroke-opacity="0.6" stroke-width="1.5" stroke-linecap="round" stroke-linejoin="round"/>
<path d="M28.832 35.875C28.832 35.875 29.5543 36.4167 30.9987 36.4167C32.4431 36.4167 33.1654 35.875 33.1654 35.875" stroke="#6279E5" stroke-opacity="0.6" stroke-width="1.5" stroke-linecap="round"/>
</svg>
