<svg width="62" height="63" viewBox="0 0 62 63" fill="none" xmlns="http://www.w3.org/2000/svg">
<rect x="0.5" y="1" width="61" height="61" rx="30.5" stroke="#7082B3" stroke-opacity="0.2"/>
<path d="M27.9228 30.2752C27.8145 30.2643 27.6845 30.2643 27.5653 30.2752C24.987 30.1885 22.9395 28.076 22.9395 25.476C22.9395 22.8218 25.0845 20.666 27.7495 20.666C30.4036 20.666 32.5595 22.8218 32.5595 25.476C32.5486 28.076 30.5011 30.1885 27.9228 30.2752Z" stroke="#6279E5" stroke-width="1.5" stroke-linecap="round" stroke-linejoin="round"/>
<path opacity="0.4" d="M35.7776 22.834C37.8792 22.834 39.5692 24.5348 39.5692 26.6257C39.5692 28.6732 37.9442 30.3415 35.9184 30.4173C35.8317 30.4065 35.7342 30.4065 35.6367 30.4173" stroke="#6279E5" stroke-width="1.5" stroke-linecap="round" stroke-linejoin="round"/>
<path d="M22.5073 34.274C19.8856 36.029 19.8856 38.889 22.5073 40.6332C25.4864 42.6265 30.3723 42.6265 33.3514 40.6332C35.9731 38.8782 35.9731 36.0182 33.3514 34.274C30.3831 32.2915 25.4973 32.2915 22.5073 34.274Z" stroke="#6279E5" stroke-width="1.5" stroke-linecap="round" stroke-linejoin="round"/>
<path opacity="0.4" d="M37.8691 40.166C38.6491 40.0035 39.3858 39.6893 39.9925 39.2235C41.6825 37.956 41.6825 35.8652 39.9925 34.5977C39.3966 34.1427 38.6708 33.8393 37.9016 33.666" stroke="#6279E5" stroke-width="1.5" stroke-linecap="round" stroke-linejoin="round"/>
</svg>
