<svg width="62" height="63" viewBox="0 0 62 63" fill="none" xmlns="http://www.w3.org/2000/svg">
<rect x="0.5" y="1" width="61" height="61" rx="30.5" stroke="#7082B3" stroke-opacity="0.2"/>
<path d="M41.8327 36.6355V23.5597C41.8327 22.2597 40.771 21.2955 39.4818 21.4038H39.4169C37.1419 21.5988 33.686 22.758 31.7577 23.9713L31.5735 24.0905C31.2593 24.2855 30.7393 24.2855 30.4252 24.0905L30.1543 23.928C28.226 22.7255 24.781 21.5772 22.506 21.393C21.2168 21.2847 20.166 22.2597 20.166 23.5488V36.6355C20.166 37.6755 21.011 38.6505 22.051 38.7805L22.3652 38.8238C24.716 39.138 28.3452 40.3297 30.4252 41.4672L30.4685 41.4888C30.761 41.6513 31.2268 41.6513 31.5085 41.4888C33.5885 40.3405 37.2285 39.138 39.5902 38.8238L39.9477 38.7805C40.9877 38.6505 41.8327 37.6755 41.8327 36.6355Z" stroke="#6279E5" stroke-width="1.5" stroke-linecap="round" stroke-linejoin="round"/>
<path opacity="0.4" d="M31 24.4473V40.6973" stroke="#6279E5" stroke-width="1.5" stroke-linecap="round" stroke-linejoin="round"/>
<path opacity="0.4" d="M26.3965 27.6973H23.959" stroke="#6279E5" stroke-width="1.5" stroke-linecap="round" stroke-linejoin="round"/>
<path opacity="0.4" d="M27.209 30.9473H23.959" stroke="#6279E5" stroke-width="1.5" stroke-linecap="round" stroke-linejoin="round"/>
</svg>
