<svg width="62" height="63" viewBox="0 0 62 63" fill="none" xmlns="http://www.w3.org/2000/svg">
<rect x="0.5" y="1" width="61" height="61" rx="30.5" stroke="#7082B3" stroke-opacity="0.2"/>
<path opacity="0.4" d="M38.0423 32.2051V36.2134C38.0423 39.5934 34.8898 42.3342 31.0007 42.3342C27.1115 42.3342 23.959 39.5934 23.959 36.2134V32.2051C23.959 35.5851 27.1115 38.0009 31.0007 38.0009C34.8898 38.0009 38.0423 35.5851 38.0423 32.2051Z" stroke="#6279E5" stroke-width="1.5" stroke-linecap="round" stroke-linejoin="round"/>
<path d="M38.0423 26.7869C38.0423 27.7727 37.7715 28.6827 37.2948 29.4627C36.1356 31.3693 33.7523 32.5827 31.0007 32.5827C28.249 32.5827 25.8657 31.3693 24.7065 29.4627C24.2298 28.6827 23.959 27.7727 23.959 26.7869C23.959 25.0969 24.7498 23.5693 26.0173 22.4643C27.2956 21.3485 29.0507 20.666 31.0007 20.666C32.9507 20.666 34.7057 21.3485 35.984 22.4535C37.2515 23.5694 38.0423 25.0969 38.0423 26.7869Z" stroke="#6279E5" stroke-width="1.5" stroke-linecap="round" stroke-linejoin="round"/>
<path d="M38.0423 26.7869V32.2035C38.0423 35.5835 34.8898 37.9993 31.0007 37.9993C27.1115 37.9993 23.959 35.5835 23.959 32.2035V26.7869C23.959 23.4069 27.1115 20.666 31.0007 20.666C32.9507 20.666 34.7057 21.3485 35.984 22.4535C37.2515 23.5694 38.0423 25.0969 38.0423 26.7869Z" stroke="#6279E5" stroke-width="1.5" stroke-linecap="round" stroke-linejoin="round"/>
</svg>
