<svg width="52" height="52" viewBox="0 0 52 52" fill="none" xmlns="http://www.w3.org/2000/svg">
<rect x="0.5" y="0.5" width="51" height="51" rx="25.5" stroke="#DDDFEB"/>
<path d="M28.0833 32.2507C32.6857 32.2507 36.4167 28.5197 36.4167 23.9173C36.4167 19.3149 32.6857 15.584 28.0833 15.584C23.481 15.584 19.75 19.3149 19.75 23.9173C19.75 28.5197 23.481 32.2507 28.0833 32.2507Z" stroke="#6279E5" stroke-width="1.5" stroke-linecap="round"/>
<path d="M16.7887 24.959C16.0269 26.1231 15.584 27.5148 15.584 29.0099C15.584 33.1009 18.9004 36.4173 22.9914 36.4173C24.4865 36.4173 25.8782 35.9744 27.0423 35.2126" stroke="#6279E5" stroke-width="1.5" stroke-linecap="round"/>
<path d="M31.209 26.5128C30.7107 27.4539 29.804 28.0833 28.7682 28.0833C27.1955 28.0833 25.9205 26.6324 25.9205 24.8426V22.9907C25.9205 21.2009 27.1955 19.75 28.7682 19.75C29.804 19.75 30.7107 20.3794 31.209 21.3206M24.959 23.9167H29.0455" stroke="#6279E5" stroke-width="1.5" stroke-linecap="round"/>
</svg>
