<svg width="52" height="52" viewBox="0 0 52 52" fill="none" xmlns="http://www.w3.org/2000/svg">
<rect x="0.5" y="0.5" width="51" height="51" rx="25.5" stroke="#DDDFEB"/>
<path d="M23.1845 33.8661L22.9953 34.5918L23.1845 33.8661ZM21.7113 32.0801L20.9966 32.3075L21.7113 32.0801ZM22.0694 33.024L21.428 33.4128L22.0694 33.024ZM30.2859 32.0801L31.0006 32.3075L30.2859 32.0801ZM29.9279 33.024L30.5693 33.4128L29.9279 33.024ZM28.8127 33.8661L29.002 34.5918L28.8127 33.8661ZM30.055 31.0549L30.3371 30.36L30.055 31.0549ZM30.4089 31.5694L31.1581 31.5351L30.4089 31.5694ZM21.9422 31.0549L21.6601 30.36L21.9422 31.0549ZM21.5883 31.5694L20.8391 31.5351L21.5883 31.5694ZM29.5209 34.0647C29.5988 33.6578 29.3322 33.2649 28.9254 33.1869C28.5186 33.109 28.1256 33.3756 28.0477 33.7824L29.5209 34.0647ZM28.6642 34.5503L27.9276 34.4091V34.4091L28.6642 34.5503ZM23.3329 34.5503L24.0695 34.4091V34.4091L23.3329 34.5503ZM23.9494 33.7824C23.8715 33.3756 23.4785 33.109 23.0717 33.1869C22.6649 33.2649 22.3983 33.6578 22.4762 34.0647L23.9494 33.7824ZM24.711 36.7339L24.4669 37.4431L24.711 36.7339ZM23.677 35.8491L23.018 36.2071L23.677 35.8491ZM28.3201 35.8491L28.9791 36.2071L28.9791 36.2071L28.3201 35.8491ZM27.2861 36.7339L27.5302 37.4431L27.2861 36.7339ZM22.4436 31.7656H29.5536V30.2656H22.4436V31.7656ZM27.8447 33.1735H24.1525V34.6735H27.8447V33.1735ZM24.1525 33.1735C23.6114 33.1735 23.4783 33.1677 23.3738 33.1404L22.9953 34.5918C23.331 34.6794 23.6965 34.6735 24.1525 34.6735V33.1735ZM20.9966 32.3075C21.1421 32.7649 21.2489 33.1173 21.428 33.4128L22.7108 32.6353C22.6467 32.5296 22.5958 32.3864 22.426 31.8528L20.9966 32.3075ZM23.3738 33.1404C23.1079 33.0711 22.8679 32.8945 22.7108 32.6353L21.428 33.4128C21.7803 33.9941 22.3388 34.4207 22.9953 34.5918L23.3738 33.1404ZM29.5712 31.8528C29.4014 32.3864 29.3505 32.5296 29.2865 32.6353L30.5693 33.4128C30.7484 33.1173 30.8551 32.7649 31.0006 32.3075L29.5712 31.8528ZM27.8447 34.6735C28.3007 34.6735 28.6662 34.6794 29.002 34.5918L28.6234 33.1404C28.5189 33.1677 28.3858 33.1735 27.8447 33.1735V34.6735ZM29.2865 32.6353C29.1294 32.8945 28.8893 33.0711 28.6234 33.1404L29.002 34.5918C29.6584 34.4207 30.2169 33.9941 30.5693 33.4128L29.2865 32.6353ZM29.5536 31.7656C29.6223 31.7656 29.6765 31.7656 29.7233 31.7662C29.7701 31.7667 29.8012 31.7678 29.8229 31.7691C29.8723 31.7722 29.8357 31.7753 29.7729 31.7498L30.3371 30.36C30.1776 30.2952 30.0251 30.2787 29.9154 30.272C29.8073 30.2653 29.6789 30.2656 29.5536 30.2656V31.7656ZM31.0006 32.3075C31.0406 32.1818 31.0805 32.0576 31.1077 31.9515C31.1353 31.8442 31.1657 31.6993 31.1581 31.5351L29.6597 31.6036C29.6572 31.548 29.6687 31.5244 29.6549 31.5783C29.6407 31.6335 29.6165 31.7104 29.5712 31.8528L31.0006 32.3075ZM29.7729 31.7498C29.6923 31.7171 29.6619 31.6511 29.6597 31.6036L31.1581 31.5351C31.135 31.0282 30.8271 30.5589 30.3371 30.36L29.7729 31.7498ZM22.4436 30.2656C22.3183 30.2656 22.1899 30.2653 22.0818 30.272C21.9721 30.2787 21.8196 30.2952 21.6601 30.36L22.2243 31.7498C22.1616 31.7753 22.1249 31.7722 22.1743 31.7691C22.196 31.7678 22.2271 31.7667 22.2739 31.7662C22.3207 31.7656 22.3749 31.7656 22.4436 31.7656V30.2656ZM22.426 31.8528C22.3807 31.7104 22.3565 31.6335 22.3423 31.5783C22.3285 31.5244 22.34 31.548 22.3375 31.6036L20.8391 31.5351C20.8315 31.6993 20.8619 31.8442 20.8895 31.9515C20.9167 32.0576 20.9566 32.1818 20.9966 32.3075L22.426 31.8528ZM21.6601 30.36C21.1701 30.5589 20.8623 31.0282 20.8391 31.5351L22.3375 31.6036C22.3353 31.6511 22.3049 31.7171 22.2243 31.7498L21.6601 30.36ZM28.0477 33.7824L27.9276 34.4091L29.4008 34.6914L29.5209 34.0647L28.0477 33.7824ZM24.0695 34.4091L23.9494 33.7824L22.4762 34.0647L22.5963 34.6914L24.0695 34.4091ZM25.9986 36.0814C25.2712 36.0814 25.0906 36.0714 24.955 36.0248L24.4669 37.4431C24.8979 37.5914 25.3868 37.5814 25.9986 37.5814V36.0814ZM22.5963 34.6914C22.7174 35.3233 22.8015 35.8086 23.018 36.2071L24.336 35.4911C24.2583 35.348 24.2111 35.148 24.0695 34.4091L22.5963 34.6914ZM24.955 36.0248C24.7 35.937 24.4768 35.7502 24.336 35.4911L23.018 36.2071C23.3321 36.7854 23.846 37.2294 24.4669 37.4431L24.955 36.0248ZM27.9276 34.4091C27.786 35.148 27.7388 35.348 27.6611 35.4911L28.9791 36.2071C29.1956 35.8086 29.2797 35.3233 29.4008 34.6914L27.9276 34.4091ZM25.9986 37.5814C26.6103 37.5814 27.0992 37.5914 27.5302 37.4431L27.0421 36.0248C26.9065 36.0714 26.7259 36.0814 25.9986 36.0814V37.5814ZM27.6611 35.4911C27.5203 35.7502 27.2971 35.937 27.0421 36.0248L27.5302 37.4431C28.1511 37.2294 28.665 36.7854 28.9791 36.2071L27.6611 35.4911Z" fill="#6279E5"/>
<path d="M19.5955 29.2487C19.1856 28.3272 18.957 27.302 18.957 26.2217C18.957 22.2096 22.1097 18.957 25.9987 18.957C29.8877 18.957 33.0404 22.2096 33.0404 26.2217C33.0404 27.302 32.8118 28.3272 32.4019 29.2487" stroke="#6279E5" stroke-width="1.5" stroke-linecap="round"/>
<path d="M26 15.166V16.2493" stroke="#6279E5" stroke-width="1.5" stroke-linecap="round" stroke-linejoin="round"/>
<path d="M36.832 26L35.7487 26" stroke="#6279E5" stroke-width="1.5" stroke-linecap="round" stroke-linejoin="round"/>
<path d="M16.25 26L15.1667 26" stroke="#6279E5" stroke-width="1.5" stroke-linecap="round" stroke-linejoin="round"/>
<path d="M33.6582 18.3398L32.8922 19.1059" stroke="#6279E5" stroke-width="1.5" stroke-linecap="round" stroke-linejoin="round"/>
<path d="M19.1055 19.1055L18.3394 18.3394" stroke="#6279E5" stroke-width="1.5" stroke-linecap="round" stroke-linejoin="round"/>
</svg>
