<svg width="52" height="52" viewBox="0 0 52 52" fill="none" xmlns="http://www.w3.org/2000/svg">
<rect x="0.5" y="0.5" width="51" height="51" rx="25.5" stroke="#DDDFEB"/>
<path d="M21.666 35.75C21.666 34.2179 21.666 33.4519 22.142 32.976C22.6179 32.5 23.384 32.5 24.916 32.5H27.0827C28.6147 32.5 29.3808 32.5 29.8567 32.976C30.3327 33.4519 30.3327 34.2179 30.3327 35.75V36.8333H21.666V35.75Z" stroke="#6279E5" stroke-width="1.5" stroke-linecap="round" stroke-linejoin="round"/>
<path d="M26 27.084L26 32.5007" stroke="#6279E5" stroke-width="1.5" stroke-linecap="round" stroke-linejoin="round"/>
<path d="M19.5 36.834H32.5" stroke="#6279E5" stroke-width="1.5" stroke-linecap="round" stroke-linejoin="round"/>
<path d="M27.123 16.1057L28.2668 18.4124C28.4228 18.7335 28.8388 19.0414 29.1897 19.1004L31.263 19.4477C32.5889 19.6705 32.9008 20.6404 31.9454 21.5971L30.3336 23.2223C30.0606 23.4975 29.9112 24.0283 29.9956 24.4083L30.4571 26.4201C30.8211 28.0125 29.9826 28.6285 28.5853 27.7962L26.642 26.6364C26.2911 26.4267 25.7126 26.4267 25.3552 26.6364L23.4119 27.7962C22.021 28.6285 21.1761 28.0059 21.5401 26.4201L22.0015 24.4083C22.086 24.0283 21.9365 23.4975 21.6636 23.2223L20.0517 21.5971C19.1028 20.6404 19.4083 19.6705 20.7342 19.4477L22.8074 19.1004C23.1519 19.0414 23.5679 18.7335 23.7238 18.4124L24.8677 16.1057C25.4916 14.8541 26.5055 14.8541 27.123 16.1057Z" stroke="#6279E5" stroke-width="1.5" stroke-linecap="round" stroke-linejoin="round"/>
</svg>
