<svg width="52" height="52" viewBox="0 0 52 52" fill="none" xmlns="http://www.w3.org/2000/svg">
<rect x="0.5" y="0.5" width="51" height="51" rx="25.5" stroke="#DDDFEB"/>
<path d="M26.0013 22.7507C26.0013 17.8757 28.168 17.334 30.3346 17.334C30.3346 20.584 28.7096 22.7507 26.0013 22.7507ZM26.0013 22.7507C26.0013 17.8757 23.8346 17.334 21.668 17.334C21.668 20.584 23.293 22.7507 26.0013 22.7507Z" stroke="#6279E5" stroke-width="1.5" stroke-linecap="round" stroke-linejoin="round"/>
<path d="M23.834 17.3346C23.834 17.3346 24.3757 15.7096 26.0007 15.168C27.6257 15.7096 28.1673 17.3346 28.1673 17.3346" stroke="#6279E5" stroke-width="1.5" stroke-linecap="round" stroke-linejoin="round"/>
<path d="M26 22.75V29.25" stroke="#6279E5" stroke-width="1.5" stroke-linecap="round" stroke-linejoin="round"/>
<path d="M26 27.0846C26.2708 26.3624 27.3 24.918 29.25 24.918" stroke="#6279E5" stroke-width="1.5" stroke-linecap="round" stroke-linejoin="round"/>
<path d="M27.2474 29.25H24.7539C22.5305 29.25 21.4187 29.25 20.8701 29.8964C20.3214 30.5429 20.6269 31.4929 21.2377 33.3928L21.3391 33.7084C21.8198 35.2034 22.0601 35.951 22.7003 36.3868L22.729 36.406C23.3763 36.8333 24.2511 36.8333 26.0007 36.8333C27.7502 36.8333 28.625 36.8333 29.2723 36.406L29.301 36.3868C29.9412 35.951 30.1815 35.2034 30.6622 33.7084L30.7636 33.3928C31.3744 31.4929 31.6799 30.5429 31.1312 29.8964C30.5826 29.25 29.4708 29.25 27.2474 29.25Z" stroke="#6279E5" stroke-width="1.5" stroke-linecap="round" stroke-linejoin="round"/>
</svg>
