<svg width="52" height="52" viewBox="0 0 52 52" fill="none" xmlns="http://www.w3.org/2000/svg">
<rect x="0.5" y="0.5" width="51" height="51" rx="25.5" stroke="#DDDFEB"/>
<path d="M28.166 32.4993C28.166 32.4993 29.2493 32.4993 30.3327 34.666C30.3327 34.666 33.7739 29.2493 36.8327 28.166" stroke="#6279E5" stroke-width="1.5" stroke-linecap="round" stroke-linejoin="round"/>
<path d="M27.0827 36.8327H20.1395C18.4653 36.8327 17.1337 36.018 15.9381 34.879C13.4905 32.5471 17.5091 30.6837 19.0417 29.7711C22.4849 27.7208 26.815 27.6348 30.3327 29.5128" stroke="#6279E5" stroke-width="1.5" stroke-linecap="round" stroke-linejoin="round"/>
<path d="M30.875 20.041C30.875 22.7334 28.6924 24.916 26 24.916C23.3076 24.916 21.125 22.7334 21.125 20.041C21.125 17.3486 23.3076 15.166 26 15.166C28.6924 15.166 30.875 17.3486 30.875 20.041Z" stroke="#6279E5" stroke-width="1.5"/>
</svg>
