<svg width="32" height="32" viewBox="0 0 32 32" fill="none" xmlns="http://www.w3.org/2000/svg">
<rect width="32" height="32" rx="16" fill="white" fill-opacity="0.3"/>
<path d="M12.12 18.1973C11.2817 18.6887 9.08348 19.6921 10.4223 20.9477C11.0763 21.561 11.8047 21.9997 12.7205 21.9997H17.9462C18.8619 21.9997 19.5903 21.561 20.2443 20.9477C21.5832 19.6921 19.385 18.6887 18.5466 18.1973C16.5806 17.0449 14.086 17.0449 12.12 18.1973Z" stroke="#6279E5" stroke-linecap="round" stroke-linejoin="round"/>
<path d="M18.0001 12.6667C18.0001 14.1394 16.8062 15.3333 15.3334 15.3333C13.8607 15.3333 12.6667 14.1394 12.6667 12.6667C12.6667 11.1939 13.8607 10 15.3334 10C16.8062 10 18.0001 11.1939 18.0001 12.6667Z" stroke="#6279E5"/>
<path d="M20 11.6926C20 11.1262 20.4477 10.667 21 10.667C21.5523 10.667 22 11.1262 22 11.6926C22 11.8968 21.9418 12.0871 21.8416 12.2469C21.5427 12.7232 21 13.1775 21 13.7439V14.0003" stroke="#6279E5" stroke-linecap="round"/>
<path d="M20.9999 15.333H21.0059" stroke="#6279E5" stroke-linecap="round" stroke-linejoin="round"/>
</svg>
