<svg width="24" height="25" viewBox="0 0 24 25" fill="none" xmlns="http://www.w3.org/2000/svg">
<path fill-rule="evenodd" clip-rule="evenodd" d="M16 3.62695H8C5.23858 3.62695 3 5.86553 3 8.62695V16.627C3 19.3884 5.23858 21.627 8 21.627H16C18.7614 21.627 21 19.3884 21 16.627V8.62695C21 5.86553 18.7614 3.62695 16 3.62695ZM19.25 16.627C19.2445 18.4196 17.7926 19.8715 16 19.877H8C6.20735 19.8715 4.75549 18.4196 4.75 16.627V8.62695C4.75549 6.8343 6.20735 5.38244 8 5.37695H16C17.7926 5.38244 19.2445 6.8343 19.25 8.62695V16.627ZM16.75 8.87695C17.3023 8.87695 17.75 8.42923 17.75 7.87695C17.75 7.32467 17.3023 6.87695 16.75 6.87695C16.1977 6.87695 15.75 7.32467 15.75 7.87695C15.75 8.42923 16.1977 8.87695 16.75 8.87695ZM12 8.12695C9.51472 8.12695 7.5 10.1417 7.5 12.627C7.5 15.1123 9.51472 17.127 12 17.127C14.4853 17.127 16.5 15.1123 16.5 12.627C16.5027 11.4327 16.0294 10.2865 15.1849 9.44203C14.3404 8.59754 13.1943 8.12429 12 8.12695ZM9.25 12.627C9.25 14.1458 10.4812 15.377 12 15.377C13.5188 15.377 14.75 14.1458 14.75 12.627C14.75 11.1082 13.5188 9.87695 12 9.87695C10.4812 9.87695 9.25 11.1082 9.25 12.627Z" fill="white" fill-opacity="0.7"/>
</svg>
