<svg width="20" height="20" viewBox="0 0 20 20" fill="none" xmlns="http://www.w3.org/2000/svg">
<g clip-path="url(#clip0_474_9142)">
<path d="M19.2238 19.2291V19.2284H19.2284V12.4576C19.2284 9.14529 18.5153 6.59375 14.643 6.59375C12.7815 6.59375 11.5323 7.61529 11.0223 8.58375H10.9684V6.90298H7.29688V19.2284H11.12V13.1253C11.12 11.5184 11.4246 9.96452 13.4146 9.96452C15.3753 9.96452 15.4046 11.7984 15.4046 13.2284V19.2291H19.2238Z" fill="white"/>
<path d="M1.07812 6.90625H4.90582V19.2316H1.07812V6.90625Z" fill="white"/>
<path d="M2.98645 0.769531C1.76261 0.769531 0.769531 1.76261 0.769531 2.98645C0.769531 4.2103 1.76261 5.22415 2.98645 5.22415C4.2103 5.22415 5.20338 4.2103 5.20338 2.98645C5.20261 1.76261 4.20953 0.769531 2.98645 0.769531V0.769531Z" fill="white"/>
</g>
<defs>
<clipPath id="clip0_474_9142">
<rect width="20" height="20" fill="white"/>
</clipPath>
</defs>
</svg>
