<svg width="40" height="40" viewBox="0 0 40 40" fill="none" xmlns="http://www.w3.org/2000/svg">
<path fill-rule="evenodd" clip-rule="evenodd" d="M20 11.2725L8.00001 28.727H32L20 11.2725ZM30.114 28.5361H9.886L20 26.4673L30.114 28.5361ZM9.47912 28.4245L20 26.2725L30.5209 28.4245L20 24.8378L9.47912 28.4245ZM20 23.2113L9.55129 28.1982L20 24.6361L30.4487 28.1982L20 23.2113ZM9.64258 27.943L20 22.9997L30.3574 27.943L20 21.5874L9.64258 27.943ZM20 19.9656L9.75001 27.6531L20 21.3634L30.25 27.6531L20 19.9656ZM9.8708 27.3239L20 19.727L30.1292 27.3239L20 18.3457L9.8708 27.3239ZM20 16.7273L10.0025 26.952L20 18.0906L29.9975 26.952L20 16.7273ZM10.1432 26.5351L20 16.4543L29.8568 26.5351L20 15.1102L10.1432 26.5351ZM20 13.2247L9.98549 26.4256L20 14.8179L30.0145 26.4256L20 13.2247ZM10.4712 25.4695L20 12.9088L29.5288 25.4695L20 11.6094L10.4712 25.4695Z" fill="url(#paint0_linear_517_4132)"/>
<defs>
<linearGradient id="paint0_linear_517_4132" x1="13.3418" y1="28.727" x2="13.3418" y2="11.2725" gradientUnits="userSpaceOnUse">
<stop stop-color="#6D87FF"/>
<stop offset="1" stop-color="#F4F6FA"/>
</linearGradient>
</defs>
</svg>
