<svg width="37" height="30" viewBox="0 0 37 30" fill="none" xmlns="http://www.w3.org/2000/svg">
<path d="M28.3599 29.5C26.1236 29.5 24.1923 28.6888 22.5659 27.0664C21.0073 25.4441 20.228 23.1457 20.228 20.1713C20.228 15.9802 21.5156 12.0932 24.0907 8.51049C26.6658 4.92774 30.9689 2.25758 37 0.5V4.96154C34.8993 5.63753 33.1374 6.41492 31.7143 7.29371C30.2912 8.17249 29.2408 9.15268 28.5632 10.2343C27.8855 11.3159 27.5467 12.5326 27.5467 13.8846C27.5467 14.831 27.9194 15.5746 28.6648 16.1154C29.4103 16.5886 30.2573 17.0956 31.206 17.6364C32.2225 18.1096 33.1035 18.7855 33.8489 19.6643C34.5943 20.4755 34.967 21.7261 34.967 23.4161C34.967 25.3765 34.3233 26.8974 33.0357 27.979C31.7482 28.993 30.1896 29.5 28.3599 29.5ZM8.03022 29.5C5.79396 29.5 3.89652 28.6888 2.33791 27.0664C0.779304 25.4441 0 23.1457 0 20.1713C0 15.9802 1.25366 12.0932 3.76099 8.51049C6.33608 4.92774 10.6731 2.25758 16.772 0.5V4.96154C14.6712 5.63753 12.9093 6.41492 11.4863 7.29371C10.0632 8.17249 9.01282 9.15268 8.33517 10.2343C7.65751 11.3159 7.31868 12.5326 7.31868 13.8846C7.31868 14.831 7.69139 15.5746 8.43681 16.1154C9.18223 16.5886 10.0293 17.0956 10.978 17.6364C11.9945 18.1096 12.8755 18.7855 13.6209 19.6643C14.3663 20.4755 14.739 21.7261 14.739 23.4161C14.739 25.3765 14.0952 26.8974 12.8077 27.979C11.5201 28.993 9.92765 29.5 8.03022 29.5Z" fill="black"/>
<path d="M28.3599 29.5C26.1236 29.5 24.1923 28.6888 22.5659 27.0664C21.0073 25.4441 20.228 23.1457 20.228 20.1713C20.228 15.9802 21.5156 12.0932 24.0907 8.51049C26.6658 4.92774 30.9689 2.25758 37 0.5V4.96154C34.8993 5.63753 33.1374 6.41492 31.7143 7.29371C30.2912 8.17249 29.2408 9.15268 28.5632 10.2343C27.8855 11.3159 27.5467 12.5326 27.5467 13.8846C27.5467 14.831 27.9194 15.5746 28.6648 16.1154C29.4103 16.5886 30.2573 17.0956 31.206 17.6364C32.2225 18.1096 33.1035 18.7855 33.8489 19.6643C34.5943 20.4755 34.967 21.7261 34.967 23.4161C34.967 25.3765 34.3233 26.8974 33.0357 27.979C31.7482 28.993 30.1896 29.5 28.3599 29.5ZM8.03022 29.5C5.79396 29.5 3.89652 28.6888 2.33791 27.0664C0.779304 25.4441 0 23.1457 0 20.1713C0 15.9802 1.25366 12.0932 3.76099 8.51049C6.33608 4.92774 10.6731 2.25758 16.772 0.5V4.96154C14.6712 5.63753 12.9093 6.41492 11.4863 7.29371C10.0632 8.17249 9.01282 9.15268 8.33517 10.2343C7.65751 11.3159 7.31868 12.5326 7.31868 13.8846C7.31868 14.831 7.69139 15.5746 8.43681 16.1154C9.18223 16.5886 10.0293 17.0956 10.978 17.6364C11.9945 18.1096 12.8755 18.7855 13.6209 19.6643C14.3663 20.4755 14.739 21.7261 14.739 23.4161C14.739 25.3765 14.0952 26.8974 12.8077 27.979C11.5201 28.993 9.92765 29.5 8.03022 29.5Z" fill="url(#paint0_linear_448_4809)"/>
<defs>
<linearGradient id="paint0_linear_448_4809" x1="1.87189e-08" y1="2.37647" x2="41.2332" y2="12.8768" gradientUnits="userSpaceOnUse">
<stop stop-color="#FFEAFD"/>
<stop offset="1" stop-color="#D3E1FF"/>
</linearGradient>
</defs>
</svg>
