<svg width="21" height="20" viewBox="0 0 21 20" fill="none" xmlns="http://www.w3.org/2000/svg">
<path d="M13.2392 4.58033L14.3638 6.82962C14.5154 7.14069 14.9222 7.43581 15.2652 7.49962L17.2991 7.83462C18.5992 8.04997 18.9023 8.99116 17.9691 9.93235L16.3818 11.5196C16.1186 11.7828 15.9671 12.3013 16.0548 12.6762L16.5094 14.6383C16.8684 16.1857 16.0388 16.7919 14.6749 15.9783L12.7686 14.8457C12.4256 14.6383 11.8513 14.6383 11.5084 14.8457L9.60206 15.9783C8.23814 16.7839 7.40861 16.1857 7.76754 14.6383L8.22218 12.6762C8.29397 12.2933 8.14242 11.7749 7.87921 11.5116L6.29195 9.92438C5.35873 8.99116 5.66183 8.04997 6.96195 7.82664L8.99587 7.49164C9.33885 7.43581 9.74564 7.13271 9.89718 6.82164L11.0218 4.57235C11.636 3.35997 12.625 3.35997 13.2392 4.58033Z" fill="white"/>
<path d="M7.34487 5.00893H2.55915C2.23213 5.00893 1.96094 4.73774 1.96094 4.41071C1.96094 4.08369 2.23213 3.8125 2.55915 3.8125H7.34487C7.67189 3.8125 7.94308 4.08369 7.94308 4.41071C7.94308 4.73774 7.67189 5.00893 7.34487 5.00893Z" fill="white"/>
<path d="M4.95201 16.1808H2.55915C2.23213 16.1808 1.96094 15.9096 1.96094 15.5826C1.96094 15.2556 2.23213 14.9844 2.55915 14.9844H4.95201C5.27903 14.9844 5.55022 15.2556 5.55022 15.5826C5.55022 15.9096 5.27903 16.1808 4.95201 16.1808Z" fill="white"/>
<path d="M3.35677 10.5949H2.55915C2.23213 10.5949 1.96094 10.3237 1.96094 9.99665C1.96094 9.66963 2.23213 9.39844 2.55915 9.39844H3.35677C3.68379 9.39844 3.95499 9.66963 3.95499 9.99665C3.95499 10.3237 3.68379 10.5949 3.35677 10.5949Z" fill="white"/>
</svg>
